<svg width="67" height="66" viewBox="0 0 67 66" fill="none" xmlns="http://www.w3.org/2000/svg">
<path d="M5.087 64.3746V65.8465H0V58.2278H1.71921V64.3746H5.087Z" fill="#247CC0"/>
<path d="M6.19415 58.2278H7.91337V65.8465H6.19415V58.2278Z" fill="#247CC0"/>
<path d="M14.778 65.8465C14.2835 64.9751 13.7536 64.1155 13.1883 63.2559C12.6113 62.4081 12.0108 61.6073 11.3631 60.8419V65.8347H9.66748V58.2278H11.0688C11.316 58.4751 11.5751 58.7695 11.8695 59.1227C12.1639 59.476 12.4583 59.8528 12.7644 60.2532C13.0706 60.6535 13.3767 61.0657 13.6711 61.5014C13.9773 61.9253 14.2599 62.3374 14.519 62.7378V58.2278H16.2264V65.8465H14.778Z" fill="#247CC0"/>
<path d="M22.479 65.8465C22.3259 65.5992 22.1375 65.3284 21.9373 65.0458C21.7254 64.7632 21.5016 64.4688 21.2544 64.1744C21.0071 63.88 20.7598 63.5974 20.489 63.3383C20.2299 63.0675 19.9591 62.832 19.7 62.6318V65.8583H17.9808V58.2278H19.7V61.0892C20.1357 60.63 20.5949 60.1354 21.0424 59.6408C21.5016 59.1345 21.9138 58.6635 22.3024 58.2278H24.3395C23.8214 58.8401 23.3033 59.4407 22.7734 60.0059C22.2435 60.5711 21.6901 61.1481 21.1131 61.7251C21.7254 62.2314 22.3142 62.832 22.8794 63.5385C23.4446 64.2333 23.9863 65.0104 24.5162 65.8465H22.479Z" fill="#247CC0"/>
<path d="M25.5062 65.8465V58.2278H30.652V59.6644H27.2254V61.1599H30.2752V62.5729H27.2254V64.4099H30.9111V65.8465H25.5062Z" fill="#247CC0"/>
<path d="M38.8475 62.0319C38.8475 62.6913 38.7416 63.2683 38.5414 63.7629C38.3412 64.2575 38.0468 64.6578 37.67 64.9875C37.2932 65.3055 36.8339 65.5528 36.2922 65.7176C35.7506 65.8825 35.1383 65.9649 34.4671 65.9649C34.1609 65.9649 33.7959 65.9531 33.3837 65.9296C32.9716 65.906 32.5712 65.8471 32.1708 65.7647V58.3344C32.5712 58.2638 32.9833 58.2166 33.4073 58.1813C33.8312 58.1578 34.208 58.146 34.5142 58.146C35.1618 58.146 35.7624 58.2167 36.2922 58.3697C36.8221 58.511 37.2814 58.7465 37.6582 59.0645C38.035 59.3824 38.3294 59.7828 38.5414 60.2774C38.7416 60.7484 38.8475 61.3371 38.8475 62.0319ZM33.8901 64.4459C33.9725 64.4576 34.0667 64.4576 34.1727 64.4576C34.2786 64.4576 34.4082 64.4576 34.5495 64.4576C35.4091 64.4576 36.045 64.2457 36.4571 63.81C36.8692 63.3743 37.0812 62.7855 37.0812 62.0201C37.0812 61.2194 36.881 60.6188 36.4924 60.2067C36.0921 59.7946 35.468 59.5944 34.6084 59.5944C34.4906 59.5944 34.3729 59.5944 34.2433 59.5944C34.1138 59.5944 33.996 59.6062 33.8901 59.6179V64.4459Z" fill="#247CC0"/>
<path d="M45.6766 58.2278V59.6879H43.3804V65.8465H41.6612V59.6879H39.365V58.2278H45.6766Z" fill="#247CC0"/>
<path d="M46.7838 65.8465V58.2278H51.9296V59.6644H48.503V61.1599H51.5528V62.5729H48.503V64.4099H52.1887V65.8465H46.7838Z" fill="#247CC0"/>
<path d="M56.9221 66.0001C55.6857 66.0001 54.7437 65.6586 54.0842 64.9639C53.4366 64.2691 53.1069 63.2918 53.1069 62.0318C53.1069 61.3959 53.2011 60.8425 53.4013 60.3479C53.6014 59.8533 53.8723 59.4294 54.2138 59.0997C54.5553 58.7582 54.9674 58.4992 55.4502 58.3225C55.9212 58.1459 56.4393 58.0635 57.0045 58.0635C57.3225 58.0635 57.6169 58.087 57.8877 58.1341C58.1468 58.1812 58.3823 58.2401 58.5825 58.299C58.7826 58.3579 58.9475 58.4285 59.077 58.4874C59.2066 58.558 59.3008 58.6052 59.3596 58.6405L58.8651 60.03C58.6296 59.9004 58.3587 59.7945 58.0408 59.712C57.7346 59.6296 57.3696 59.5825 56.981 59.5825C56.7219 59.5825 56.4629 59.6296 56.2038 59.712C55.9565 59.7945 55.7328 59.9358 55.5326 60.136C55.3324 60.3361 55.1793 60.5834 55.0616 60.8896C54.9438 61.1957 54.885 61.5726 54.885 62.0083C54.885 62.3615 54.9203 62.6912 55.0027 62.9974C55.0851 63.3036 55.2029 63.5626 55.3795 63.7864C55.5562 64.0101 55.7799 64.1749 56.0507 64.3045C56.3333 64.434 56.6631 64.4929 57.0634 64.4929C57.3107 64.4929 57.5344 64.4811 57.7346 64.4458C57.9348 64.4222 58.1114 64.3869 58.2645 64.3398C58.4176 64.3045 58.5589 64.2574 58.6767 64.1985C58.7944 64.1514 58.9004 64.1043 58.9946 64.0572L59.4656 65.4349C59.2183 65.5762 58.8769 65.7175 58.4412 65.8353C58.0055 65.9413 57.4991 66.0001 56.9221 66.0001Z" fill="#247CC0"/>
<path d="M65.1769 58.2278H66.8961V65.8465H65.1769V62.6083H62.2919V65.8465H60.5727V58.2278H62.2919V61.1481H65.1769V58.2278Z" fill="#247CC0"/>
<path d="M21.8437 11.182C21.985 10.028 22.456 8.96825 23.1508 8.10864L21.3962 6.28345L15.9913 9.40394C15.3672 9.76898 14.802 10.4402 14.4487 11.182H21.8437Z" fill="#262262"/>
<path d="M33.4425 31.4949L29.0856 18.0121C28.7206 18.0827 28.3438 18.118 27.9552 18.118C27.2133 18.118 26.5068 17.9885 25.8474 17.7412L21.5964 25.9605C22.197 26.5139 22.5856 27.3147 22.5856 28.1978C22.5856 28.3156 22.5738 28.4333 22.562 28.5511L32.3945 32.4841C32.6654 32.0955 33.0304 31.754 33.4425 31.4949Z" fill="#1C75BC"/>
<path d="M19.5598 25.1837C19.7835 25.1837 19.9955 25.2072 20.2075 25.2543L24.4584 17.035C23.0571 16.0695 22.0798 14.5269 21.856 12.7488H14.0842V12.7606V18.5423L18.606 25.3367C18.9004 25.2425 19.2183 25.1837 19.5598 25.1837Z" fill="#2B3990"/>
<path d="M35.2327 31.0006C35.4918 31.0006 35.7508 31.0359 35.9981 31.083L41.2382 20.1907C40.1078 19.3782 39.3777 18.0593 39.3777 16.5521C39.3777 16.399 39.3895 16.2341 39.4012 16.0811L33.6077 14.4089C33.0072 15.7867 31.9356 16.8936 30.5814 17.5294L34.9383 31.0123C35.0325 31.0123 35.1385 31.0006 35.2327 31.0006Z" fill="#1C75BC"/>
<path d="M46.4194 20.2261C46.1721 20.4027 45.9013 20.5558 45.6069 20.6735L46.7727 25.7134C48.0444 25.8312 49.0454 26.9028 49.0454 28.1981C49.0454 28.5984 48.9512 28.987 48.7745 29.3285L52.1541 32.7081C52.5544 32.0604 52.8135 31.3185 52.8135 30.6591V26.6319L46.4194 20.2261Z" fill="#2EA8E0"/>
<path d="M31.7586 34.4744C31.7586 34.2977 31.7704 34.1211 31.7939 33.9445L21.9732 30.0115C21.7377 30.3176 21.4551 30.5885 21.1254 30.7887L23.2921 38.219L27.7903 40.8096L32.2885 36.3113C31.9588 35.7814 31.7586 35.1456 31.7586 34.4744Z" fill="#2EA8E0"/>
<path d="M45.2417 26.0663L44.076 21.0264C44.0053 21.0264 43.9229 21.0264 43.8523 21.0264C43.4401 21.0264 43.028 20.9676 42.6511 20.8616L37.4111 31.7539C37.5524 31.8716 37.6937 32.0012 37.8114 32.1307L44.0878 28.6569C44.0642 28.5038 44.0407 28.3508 44.0407 28.1859C44.0407 27.3027 44.5234 26.502 45.2417 26.0663Z" fill="#2EA8E0"/>
<path d="M51.5651 9.95752L47.5261 13.9965C48.0325 14.7266 48.3386 15.6097 48.3386 16.5635C48.3386 17.5174 48.0442 18.4005 47.5261 19.1306L52.8133 24.4178V12.7719C52.8133 11.818 52.2952 10.6994 51.5651 9.95752Z" fill="#1C75BC"/>
<path d="M37.0695 37.4182C36.5396 37.7479 35.9037 37.9481 35.2325 37.9481C34.5613 37.9481 33.9254 37.7597 33.3955 37.4182L29.1917 41.6221L31.4997 42.9527C32.5713 43.565 34.314 43.565 35.3738 42.9527L39.9545 40.3032L37.0695 37.4182Z" fill="#5DCBEC"/>
<path d="M19.6184 31.2242C19.5949 31.2242 19.5713 31.2242 19.5596 31.2242C17.8874 31.2242 16.5333 29.87 16.5333 28.1979C16.5333 27.4325 16.8159 26.7378 17.2869 26.1961L14.0722 21.3682V30.6472C14.0722 31.8836 14.9436 33.3909 16.0152 34.0032L21.3377 37.0766L19.6184 31.2242Z" fill="#1C75BC"/>
<path d="M47.6675 30.4352C47.326 30.6001 46.9492 30.7061 46.537 30.7061C45.8776 30.7061 45.2888 30.4588 44.8414 30.0466L38.565 33.5204C38.6475 33.8266 38.6946 34.1445 38.6946 34.4742C38.6946 35.1454 38.5062 35.7813 38.1647 36.3112L41.3558 39.5023L50.8586 34.015C50.9293 33.9679 51.0117 33.9208 51.0824 33.8737L47.6675 30.4352Z" fill="#5DCBEC"/>
<path d="M34.1137 11.9713C34.1137 12.2893 34.0901 12.6072 34.043 12.9134L39.8365 14.5855C40.4018 13.4433 41.4262 12.5837 42.6862 12.2422L41.9679 4.27018L35.8564 0.737549L31.841 7.1905C33.2305 8.32094 34.1137 10.0402 34.1137 11.9713Z" fill="#2B3990"/>
<path d="M24.293 7.02577C25.3174 6.26037 26.5892 5.8129 27.9669 5.8129C28.8736 5.8129 29.745 6.01308 30.5222 6.36635L34.4081 0.101805C33.4307 -0.110153 32.2885 0.00760602 31.5113 0.466849L22.821 5.48319L24.293 7.02577Z" fill="#262262"/>
<path d="M50.2583 9.05163L43.6287 5.22461L44.241 12.1015C45.0418 12.1721 45.7954 12.4547 46.4195 12.8904L50.2583 9.05163Z" fill="#2B3990"/>
<path d="M22.5623 28.5632L32.3948 32.4962C32.6774 32.0958 33.0307 31.7543 33.4546 31.507L29.5922 19.5549C26.7072 21.4155 24.1049 23.6528 21.8204 26.2081C22.2915 26.738 22.5858 27.4445 22.5858 28.2217C22.5858 28.3276 22.5741 28.4454 22.5623 28.5632Z" fill="url(#paint0_linear_1_61)"/>
<path d="M35.2329 31.0003C35.492 31.0003 35.751 31.0356 35.9983 31.0827L41.2384 20.1904C40.108 19.3779 39.3779 18.0591 39.3779 16.5518C39.3779 16.3987 39.3897 16.2339 39.4014 16.0808L37.6587 15.5745C35.3154 16.3987 33.0662 17.4468 30.9584 18.6832L34.9385 31.0003C35.0327 31.0121 35.1387 31.0003 35.2329 31.0003Z" fill="url(#paint1_linear_1_61)"/>
<path d="M45.6069 20.6852L46.7727 25.7251C48.0444 25.8429 49.0454 26.9144 49.0454 28.2097C49.0454 28.6101 48.9512 28.9987 48.7745 29.3402L52.1541 32.7197C52.5544 32.0721 52.8135 31.3302 52.8135 30.6708V26.6436L46.4194 20.2495C46.1721 20.4026 45.9013 20.5557 45.6069 20.6852Z" fill="url(#paint2_linear_1_61)"/>
<path d="M31.7591 34.4739C31.7591 34.2973 31.7709 34.1206 31.7945 33.944L21.9737 30.011C21.7382 30.3171 21.4556 30.588 21.1259 30.7882L23.2926 38.2185L27.7908 40.8091L32.289 36.3109C31.9593 35.781 31.7591 35.1451 31.7591 34.4739Z" fill="url(#paint3_linear_1_61)"/>
<path d="M37.812 32.1542L44.0883 28.6805C44.0648 28.5274 44.0412 28.3743 44.0412 28.2095C44.0412 27.3027 44.524 26.5138 45.2423 26.0663L44.0765 21.0264C44.0059 21.0264 43.9235 21.0264 43.8528 21.0264C43.4407 21.0264 43.0285 20.9676 42.6517 20.8616L37.4116 31.7539C37.5529 31.8834 37.6825 32.0129 37.812 32.1542Z" fill="url(#paint4_linear_1_61)"/>
<path d="M48.3392 16.5637C48.3392 17.5176 48.0448 18.4007 47.5267 19.1308L52.8139 24.418V13.5492C51.966 13.4903 51.1182 13.4668 50.2586 13.4668C49.505 13.4668 48.7513 13.4904 48.0095 13.5375L47.5384 14.0085C48.033 14.7268 48.3392 15.6099 48.3392 16.5637Z" fill="url(#paint5_linear_1_61)"/>
<path d="M35.2331 37.9479C34.5619 37.9479 33.926 37.7595 33.3961 37.418L29.1923 41.6219L31.5002 42.9525C32.5718 43.5648 34.3146 43.5648 35.3744 42.9525L39.955 40.303L37.0583 37.4062C36.5401 37.7595 35.9043 37.9479 35.2331 37.9479Z" fill="url(#paint6_linear_1_61)"/>
<path d="M19.6185 31.2239C19.595 31.2239 19.5714 31.2239 19.5597 31.2239C19.0769 31.2239 18.6176 31.1062 18.2173 30.906C17.5343 31.9658 16.8984 33.0609 16.3214 34.1796L21.326 37.0763L19.6185 31.2239Z" fill="url(#paint7_linear_1_61)"/>
<path d="M46.549 30.7061C45.8896 30.7061 45.3008 30.4588 44.8533 30.0466L38.577 33.5204C38.6594 33.8266 38.7065 34.1445 38.7065 34.4742C38.7065 35.1454 38.5181 35.7813 38.1766 36.3112L41.3678 39.5023L50.8706 34.015C50.9412 33.9679 51.0237 33.9208 51.0943 33.8737L47.6677 30.447C47.3262 30.6119 46.9494 30.7061 46.549 30.7061Z" fill="url(#paint8_linear_1_61)"/>
<defs>
<linearGradient id="paint0_linear_1_61" x1="25.1825" y1="22.4244" x2="30.0764" y2="31.3966" gradientUnits="userSpaceOnUse">
<stop stop-color="white" stop-opacity="0.4"/>
<stop offset="1" stop-color="white" stop-opacity="0"/>
</linearGradient>
<linearGradient id="paint1_linear_1_61" x1="33.9478" y1="17.643" x2="38.8419" y2="26.6154" gradientUnits="userSpaceOnUse">
<stop stop-color="white" stop-opacity="0.4"/>
<stop offset="1" stop-color="white" stop-opacity="0"/>
</linearGradient>
<linearGradient id="paint2_linear_1_61" x1="42.5764" y1="12.9368" x2="47.4704" y2="21.909" gradientUnits="userSpaceOnUse">
<stop stop-color="white" stop-opacity="0.4"/>
<stop offset="1" stop-color="white" stop-opacity="0"/>
</linearGradient>
<linearGradient id="paint3_linear_1_61" x1="21.2633" y1="24.5617" x2="26.1573" y2="33.534" gradientUnits="userSpaceOnUse">
<stop stop-color="white" stop-opacity="0.4"/>
<stop offset="1" stop-color="white" stop-opacity="0"/>
</linearGradient>
<linearGradient id="paint4_linear_1_61" x1="35.5059" y1="16.7932" x2="40.3999" y2="25.7656" gradientUnits="userSpaceOnUse">
<stop stop-color="white" stop-opacity="0.4"/>
<stop offset="1" stop-color="white" stop-opacity="0"/>
</linearGradient>
<linearGradient id="paint5_linear_1_61" x1="47.0039" y1="10.5219" x2="51.8978" y2="19.4942" gradientUnits="userSpaceOnUse">
<stop stop-color="white" stop-opacity="0.4"/>
<stop offset="1" stop-color="white" stop-opacity="0"/>
</linearGradient>
<linearGradient id="paint6_linear_1_61" x1="24.6283" y1="22.7264" x2="29.5223" y2="31.6988" gradientUnits="userSpaceOnUse">
<stop stop-color="white" stop-opacity="0.4"/>
<stop offset="1" stop-color="white" stop-opacity="0"/>
</linearGradient>
<linearGradient id="paint7_linear_1_61" x1="15.3" y1="27.8146" x2="20.1939" y2="36.7867" gradientUnits="userSpaceOnUse">
<stop stop-color="white" stop-opacity="0.4"/>
<stop offset="1" stop-color="white" stop-opacity="0"/>
</linearGradient>
<linearGradient id="paint8_linear_1_61" x1="34.8537" y1="17.1491" x2="39.7477" y2="26.1214" gradientUnits="userSpaceOnUse">
<stop stop-color="white" stop-opacity="0.4"/>
<stop offset="1" stop-color="white" stop-opacity="0"/>
</linearGradient>
</defs>
</svg>
