<svg width="106" height="27" viewBox="0 0 106 27" fill="none" xmlns="http://www.w3.org/2000/svg">
<path d="M36.7032 17.0762V18.7264H31V10.1848H32.9275V17.0762H36.7032Z" fill="#247CC0"/>
<path d="M37.9442 10.1848H39.8717V18.7264H37.9442V10.1848Z" fill="#247CC0"/>
<path d="M47.5684 18.7264C47.0139 17.7495 46.4198 16.7858 45.7861 15.822C45.1392 14.8715 44.4659 13.9738 43.7398 13.1156V18.7132H41.8387V10.1848H43.4098C43.687 10.4621 43.9775 10.7921 44.3075 11.1882C44.6375 11.5842 44.9676 12.0067 45.3109 12.4555C45.6541 12.9044 45.9973 13.3665 46.3274 13.8549C46.6706 14.3302 46.9875 14.7923 47.2779 15.2411V10.1848H49.1922V18.7264H47.5684Z" fill="#247CC0"/>
<path d="M56.2024 18.7264C56.0308 18.4492 55.8196 18.1456 55.5952 17.8287C55.3575 17.5119 55.1067 17.1818 54.8294 16.8518C54.5522 16.5217 54.275 16.2049 53.9713 15.9144C53.6809 15.6108 53.3772 15.3468 53.0868 15.1223V18.7396H51.1593V10.1848H53.0868V13.3929C53.5753 12.878 54.0901 12.3235 54.5918 11.769C55.1067 11.2014 55.5687 10.6733 56.0044 10.1848H58.2883C57.7074 10.8713 57.1266 11.5446 56.5325 12.1783C55.9384 12.812 55.3179 13.4589 54.671 14.1058C55.3575 14.6735 56.0176 15.3468 56.6513 16.1389C57.285 16.9178 57.8923 17.7891 58.4864 18.7264H56.2024Z" fill="#247CC0"/>
<path d="M59.5953 18.7264V10.1848H65.3646V11.7954H61.5228V13.4721H64.9421V15.0563H61.5228V17.1158H65.655V18.7264H59.5953Z" fill="#247CC0"/>
<path d="M74.5531 14.4492C74.5531 15.1885 74.4343 15.8354 74.2099 16.3898C73.9854 16.9443 73.6554 17.3932 73.2329 17.7628C72.8105 18.1193 72.2956 18.3965 71.6883 18.5814C71.081 18.7662 70.3945 18.8586 69.642 18.8586C69.2987 18.8586 68.8895 18.8454 68.4274 18.819C67.9654 18.7926 67.5165 18.7266 67.0676 18.6342V10.3038C67.5165 10.2246 67.9786 10.1717 68.4538 10.1321C68.9291 10.1057 69.3516 10.0925 69.6948 10.0925C70.4209 10.0925 71.0942 10.1717 71.6883 10.3434C72.2824 10.5018 72.7973 10.7658 73.2197 11.1223C73.6422 11.4787 73.9722 11.9276 74.2099 12.4821C74.4343 13.0102 74.5531 13.6702 74.5531 14.4492ZM68.9951 17.1555C69.0875 17.1687 69.1931 17.1688 69.312 17.1688C69.4308 17.1688 69.576 17.1688 69.7344 17.1688C70.6982 17.1688 71.4111 16.9311 71.8731 16.4426C72.3352 15.9542 72.5728 15.2941 72.5728 14.436C72.5728 13.5382 72.3484 12.8649 71.9127 12.4029C71.4639 11.9408 70.7642 11.7164 69.8004 11.7164C69.6684 11.7164 69.5364 11.7164 69.3912 11.7164C69.246 11.7164 69.1139 11.7296 68.9951 11.7428V17.1555Z" fill="#247CC0"/>
<path d="M82.2102 10.1848V11.8219H79.6358V18.7264H77.7083V11.8219H75.1339V10.1848H82.2102Z" fill="#247CC0"/>
<path d="M83.4511 18.7264V10.1848H89.2204V11.7954H85.3786V13.4721H88.7979V15.0563H85.3786V17.1158H89.5108V18.7264H83.4511Z" fill="#247CC0"/>
<path d="M94.818 18.8981C93.4318 18.8981 92.3757 18.5152 91.6364 17.7363C90.9102 16.9574 90.5406 15.8616 90.5406 14.449C90.5406 13.7361 90.6462 13.1157 90.8706 12.5612C91.0951 12.0067 91.3987 11.5314 91.7816 11.1618C92.1644 10.7789 92.6265 10.4885 93.1678 10.2904C93.6958 10.0924 94.2767 10 94.9104 10C95.2669 10 95.5969 10.0264 95.9006 10.0792C96.191 10.132 96.455 10.198 96.6795 10.264C96.9039 10.33 97.0887 10.4093 97.2339 10.4753C97.3792 10.5545 97.4848 10.6073 97.5508 10.6469L96.9963 12.2047C96.7323 12.0595 96.4286 11.9407 96.0722 11.8483C95.7289 11.7559 95.3197 11.703 94.884 11.703C94.5936 11.703 94.3031 11.7559 94.0127 11.8483C93.7355 11.9407 93.4846 12.0991 93.2602 12.3235C93.0357 12.548 92.8641 12.8252 92.7321 13.1685C92.6001 13.5117 92.5341 13.9342 92.5341 14.4226C92.5341 14.8187 92.5737 15.1884 92.6661 15.5316C92.7585 15.8748 92.8905 16.1653 93.0886 16.4161C93.2866 16.667 93.5374 16.8518 93.8411 16.997C94.1579 17.1422 94.5276 17.2082 94.9764 17.2082C95.2537 17.2082 95.5045 17.195 95.7289 17.1554C95.9534 17.129 96.1514 17.0894 96.323 17.0366C96.4947 16.997 96.6531 16.9442 96.7851 16.8782C96.9171 16.8254 97.0359 16.7726 97.1415 16.7198L97.6696 18.2644C97.3924 18.4228 97.0095 18.5812 96.5211 18.7133C96.0326 18.8321 95.4649 18.8981 94.818 18.8981Z" fill="#247CC0"/>
<path d="M104.073 10.1848H106V18.7264H104.073V15.0959H100.838V18.7264H98.9106V10.1848H100.838V13.4589H104.073V10.1848Z" fill="#247CC0"/>
<path d="M4.59431 7.44369C4.67785 6.7615 4.95629 6.13499 5.367 5.62683L4.32979 4.54785L1.13463 6.39255C0.765685 6.60835 0.431552 7.00514 0.222717 7.44369H4.59431Z" fill="#262262"/>
<path d="M11.4511 19.4517L8.87546 11.4812C8.65967 11.5229 8.43691 11.5438 8.2072 11.5438C7.76865 11.5438 7.35097 11.4672 6.96115 11.321L4.44818 16.1799C4.8032 16.5071 5.03292 16.9805 5.03292 17.5025C5.03292 17.5722 5.02595 17.6418 5.01899 17.7114L10.8315 20.0364C10.9916 19.8067 11.2074 19.6048 11.4511 19.4517Z" fill="#1C75BC"/>
<path d="M3.24395 15.7203C3.37621 15.7203 3.50151 15.7343 3.62681 15.7621L6.13978 10.9032C5.31141 10.3324 4.73363 9.42052 4.60137 8.36938H0.00701904V8.37634V11.7943L2.6801 15.8108C2.85413 15.7552 3.04208 15.7203 3.24395 15.7203Z" fill="#2B3990"/>
<path d="M12.5092 19.1593C12.6623 19.1593 12.8155 19.1802 12.9616 19.2081L16.0594 12.769C15.3911 12.2887 14.9595 11.509 14.9595 10.618C14.9595 10.5275 14.9665 10.4301 14.9734 10.3396L11.5485 9.35107C11.1935 10.1655 10.5601 10.8199 9.75952 11.1958L12.3351 19.1663C12.3908 19.1663 12.4535 19.1593 12.5092 19.1593Z" fill="#1C75BC"/>
<path d="M19.1222 12.7898C18.976 12.8942 18.8159 12.9847 18.6418 13.0543L19.331 16.0337C20.0828 16.1033 20.6745 16.7368 20.6745 17.5025C20.6745 17.7392 20.6188 17.9689 20.5144 18.1708L22.5122 20.1686C22.7489 19.7857 22.9021 19.3472 22.9021 18.9574V16.5767L19.1222 12.7898Z" fill="#2EA8E0"/>
<path d="M10.4556 21.2127C10.4556 21.1083 10.4626 21.0039 10.4765 20.8995L4.67094 18.5745C4.53171 18.7555 4.36465 18.9156 4.16974 19.0339L5.45059 23.4264L8.10974 24.9578L10.7689 22.2987C10.574 21.9854 10.4556 21.6095 10.4556 21.2127Z" fill="#2EA8E0"/>
<path d="M18.4262 16.2426L17.737 13.2632C17.6952 13.2632 17.6465 13.2632 17.6047 13.2632C17.3611 13.2632 17.1175 13.2284 16.8947 13.1658L13.797 19.6048C13.8805 19.6744 13.9641 19.751 14.0337 19.8276L17.744 17.774C17.73 17.6836 17.7161 17.5931 17.7161 17.4956C17.7161 16.9735 18.0015 16.5002 18.4262 16.2426Z" fill="#2EA8E0"/>
<path d="M22.1641 6.71973L19.7764 9.1074C20.0758 9.53899 20.2567 10.0611 20.2567 10.6249C20.2567 11.1888 20.0827 11.7109 19.7764 12.1425L22.902 15.268V8.38344C22.902 7.81959 22.5957 7.15828 22.1641 6.71973Z" fill="#1C75BC"/>
<path d="M13.5951 22.9531C13.2819 23.148 12.906 23.2664 12.5092 23.2664C12.1124 23.2664 11.7365 23.155 11.4232 22.9531L8.93811 25.4383L10.3025 26.2249C10.936 26.5868 11.9662 26.5868 12.5927 26.2249L15.3006 24.6586L13.5951 22.9531Z" fill="#5DCBEC"/>
<path d="M3.2787 19.2916C3.26477 19.2916 3.25085 19.2916 3.24389 19.2916C2.25541 19.2916 1.45488 18.491 1.45488 17.5025C1.45488 17.0501 1.62195 16.6394 1.90039 16.3192L0 13.4651V18.9505C0 19.6814 0.515124 20.5724 1.14859 20.9344L4.29502 22.7512L3.2787 19.2916Z" fill="#1C75BC"/>
<path d="M19.8604 18.8252C19.6585 18.9226 19.4357 18.9853 19.1921 18.9853C18.8023 18.9853 18.4542 18.8391 18.1897 18.5955L14.4794 20.649C14.5281 20.83 14.556 21.0179 14.556 21.2129C14.556 21.6096 14.4446 21.9855 14.2427 22.2988L16.1292 24.1853L21.7468 20.9414C21.7886 20.9135 21.8373 20.8857 21.8791 20.8578L19.8604 18.8252Z" fill="#5DCBEC"/>
<path d="M11.8476 7.90997C11.8476 8.09792 11.8337 8.28587 11.8058 8.46686L15.2307 9.45534C15.5648 8.78011 16.1705 8.27195 16.9153 8.07008L16.4907 3.35738L12.8778 1.26904L10.5041 5.08375C11.3255 5.75202 11.8476 6.76834 11.8476 7.90997Z" fill="#2B3990"/>
<path d="M6.0422 4.98634C6.64782 4.53387 7.39962 4.26934 8.21407 4.26934C8.75008 4.26934 9.2652 4.38768 9.72464 4.59652L12.0218 0.893191C11.444 0.76789 10.7688 0.837504 10.3094 1.10899L5.17206 4.07443L6.0422 4.98634Z" fill="#262262"/>
<path d="M21.3917 6.18376L17.4725 3.92139L17.8345 7.98669C18.3079 8.02846 18.7534 8.19553 19.1223 8.45309L21.3917 6.18376Z" fill="#2B3990"/>
<path d="M5.01899 17.7183L10.8315 20.0434C10.9986 19.8067 11.2074 19.6048 11.458 19.4586L9.1748 12.3931C7.46932 13.4929 5.93091 14.8155 4.58044 16.3261C4.85889 16.6394 5.03292 17.057 5.03292 17.5165C5.03292 17.5791 5.02595 17.6487 5.01899 17.7183Z" fill="url(#paint0_linear_1_449)"/>
<path d="M12.5094 19.1594C12.6626 19.1594 12.8157 19.1803 12.9619 19.2081L16.0596 12.7691C15.3913 12.2887 14.9598 11.5091 14.9598 10.6181C14.9598 10.5276 14.9667 10.4301 14.9737 10.3396L13.9434 10.0403C12.5582 10.5276 11.2286 11.1471 9.98254 11.878L12.3354 19.1594C12.3911 19.1663 12.4537 19.1594 12.5094 19.1594Z" fill="url(#paint1_linear_1_449)"/>
<path d="M18.6418 13.0613L19.331 16.0406C20.0828 16.1103 20.6745 16.7437 20.6745 17.5094C20.6745 17.7461 20.6188 17.9758 20.5144 18.1777L22.5122 20.1756C22.7489 19.7927 22.9021 19.3541 22.9021 18.9643V16.5836L19.1222 12.8037C18.976 12.8942 18.8159 12.9847 18.6418 13.0613Z" fill="url(#paint2_linear_1_449)"/>
<path d="M10.4556 21.213C10.4556 21.1086 10.4626 21.0041 10.4765 20.8997L4.67094 18.5747C4.53171 18.7557 4.36465 18.9158 4.16974 19.0341L5.45059 23.4266L8.10974 24.9581L10.7689 22.2989C10.574 21.9857 10.4556 21.6098 10.4556 21.213Z" fill="url(#paint3_linear_1_449)"/>
<path d="M14.0337 19.8415L17.744 17.788C17.73 17.6975 17.7161 17.607 17.7161 17.5095C17.7161 16.9735 18.0015 16.5071 18.4262 16.2426L17.737 13.2632C17.6952 13.2632 17.6465 13.2632 17.6047 13.2632C17.3611 13.2632 17.1175 13.2284 16.8947 13.1658L13.797 19.6048C13.8805 19.6814 13.9571 19.758 14.0337 19.8415Z" fill="url(#paint4_linear_1_449)"/>
<path d="M20.2567 10.625C20.2567 11.1888 20.0827 11.7109 19.7764 12.1425L22.902 15.268V8.84292C22.4008 8.80811 21.8996 8.79419 21.3914 8.79419C20.9459 8.79419 20.5004 8.80811 20.0618 8.83596L19.7834 9.1144C20.0758 9.53903 20.2567 10.0611 20.2567 10.625Z" fill="url(#paint5_linear_1_449)"/>
<path d="M12.5092 23.2665C12.1124 23.2665 11.7365 23.1551 11.4232 22.9533L8.93811 25.4384L10.3025 26.225C10.936 26.587 11.9662 26.587 12.5927 26.225L15.3006 24.6587L13.5881 22.9463C13.2819 23.1551 12.906 23.2665 12.5092 23.2665Z" fill="url(#paint6_linear_1_449)"/>
<path d="M3.27871 19.2917C3.26479 19.2917 3.25086 19.2917 3.2439 19.2917C2.9585 19.2917 2.68701 19.2221 2.45033 19.1038C2.04659 19.7303 1.67069 20.3776 1.32959 21.039L4.28807 22.7514L3.27871 19.2917Z" fill="url(#paint7_linear_1_449)"/>
<path d="M19.1988 18.9853C18.809 18.9853 18.4609 18.8391 18.1964 18.5955L14.4861 20.649C14.5349 20.83 14.5627 21.0179 14.5627 21.2129C14.5627 21.6096 14.4513 21.9855 14.2495 22.2988L16.1359 24.1853L21.7536 20.9414C21.7953 20.9135 21.8441 20.8857 21.8858 20.8578L19.8601 18.8321C19.6583 18.9296 19.4355 18.9853 19.1988 18.9853Z" fill="url(#paint8_linear_1_449)"/>
<defs>
<linearGradient id="paint0_linear_1_449" x1="6.56795" y1="14.0894" x2="9.46104" y2="19.3933" gradientUnits="userSpaceOnUse">
<stop stop-color="white" stop-opacity="0.4"/>
<stop offset="1" stop-color="white" stop-opacity="0"/>
</linearGradient>
<linearGradient id="paint1_linear_1_449" x1="11.7497" y1="11.2631" x2="14.6429" y2="16.5672" gradientUnits="userSpaceOnUse">
<stop stop-color="white" stop-opacity="0.4"/>
<stop offset="1" stop-color="white" stop-opacity="0"/>
</linearGradient>
<linearGradient id="paint2_linear_1_449" x1="16.8503" y1="8.48075" x2="19.7434" y2="13.7848" gradientUnits="userSpaceOnUse">
<stop stop-color="white" stop-opacity="0.4"/>
<stop offset="1" stop-color="white" stop-opacity="0"/>
</linearGradient>
<linearGradient id="paint3_linear_1_449" x1="4.25096" y1="15.3533" x2="7.14408" y2="20.6574" gradientUnits="userSpaceOnUse">
<stop stop-color="white" stop-opacity="0.4"/>
<stop offset="1" stop-color="white" stop-opacity="0"/>
</linearGradient>
<linearGradient id="paint4_linear_1_449" x1="12.6704" y1="10.7607" x2="15.5636" y2="16.0648" gradientUnits="userSpaceOnUse">
<stop stop-color="white" stop-opacity="0.4"/>
<stop offset="1" stop-color="white" stop-opacity="0"/>
</linearGradient>
<linearGradient id="paint5_linear_1_449" x1="19.4674" y1="7.05331" x2="22.3605" y2="12.3573" gradientUnits="userSpaceOnUse">
<stop stop-color="white" stop-opacity="0.4"/>
<stop offset="1" stop-color="white" stop-opacity="0"/>
</linearGradient>
<linearGradient id="paint6_linear_1_449" x1="6.24009" y1="14.2682" x2="9.13324" y2="19.5723" gradientUnits="userSpaceOnUse">
<stop stop-color="white" stop-opacity="0.4"/>
<stop offset="1" stop-color="white" stop-opacity="0"/>
</linearGradient>
<linearGradient id="paint7_linear_1_449" x1="0.725774" y1="17.2763" x2="3.61883" y2="22.5802" gradientUnits="userSpaceOnUse">
<stop stop-color="white" stop-opacity="0.4"/>
<stop offset="1" stop-color="white" stop-opacity="0"/>
</linearGradient>
<linearGradient id="paint8_linear_1_449" x1="12.2851" y1="10.971" x2="15.1782" y2="16.275" gradientUnits="userSpaceOnUse">
<stop stop-color="white" stop-opacity="0.4"/>
<stop offset="1" stop-color="white" stop-opacity="0"/>
</linearGradient>
</defs>
</svg>
