<svg width="17" height="17" viewBox="0 0 17 17" fill="none" xmlns="http://www.w3.org/2000/svg">
<path d="M12.5 1H5C2.92893 1 1.25 2.67893 1.25 4.75V12.25C1.25 14.3211 2.92893 16 5 16H12.5C14.5711 16 16.25 14.3211 16.25 12.25V4.75C16.25 2.67893 14.5711 1 12.5 1Z" stroke="white" stroke-linecap="round" stroke-linejoin="round"/>
<path d="M11.75 8.02724C11.8426 8.65142 11.736 9.2889 11.4453 9.849C11.1547 10.4091 10.6949 10.8633 10.1312 11.147C9.5676 11.4307 8.92886 11.5294 8.30586 11.4292C7.68287 11.3289 7.10734 11.0348 6.66115 10.5886C6.21496 10.1424 5.92082 9.56689 5.82058 8.9439C5.72033 8.3209 5.81907 7.68216 6.10277 7.11852C6.38647 6.55488 6.84066 6.09504 7.40076 5.80442C7.96086 5.51379 8.59834 5.40718 9.22252 5.49974C9.85922 5.59415 10.4487 5.89084 10.9038 6.34597C11.3589 6.8011 11.6556 7.39055 11.75 8.02724Z" stroke="white" stroke-linecap="round" stroke-linejoin="round"/>
<path d="M12.875 4.375H12.8825" stroke="white" stroke-linecap="round" stroke-linejoin="round"/>
</svg>
