<svg width="19" height="18" viewBox="0 0 19 18" fill="none" xmlns="http://www.w3.org/2000/svg">
<path d="M7.31818 16.2728C7.71985 16.2728 8.04546 15.9472 8.04546 15.5455C8.04546 15.1438 7.71985 14.8182 7.31818 14.8182C6.91652 14.8182 6.59091 15.1438 6.59091 15.5455C6.59091 15.9472 6.91652 16.2728 7.31818 16.2728Z" stroke="black" stroke-width="1.5" stroke-linecap="round" stroke-linejoin="round"/>
<path d="M15.3182 16.2728C15.7198 16.2728 16.0455 15.9472 16.0455 15.5455C16.0455 15.1438 15.7198 14.8182 15.3182 14.8182C14.9165 14.8182 14.5909 15.1438 14.5909 15.5455C14.5909 15.9472 14.9165 16.2728 15.3182 16.2728Z" stroke="black" stroke-width="1.5" stroke-linecap="round" stroke-linejoin="round"/>
<path d="M1.5 1H4.40909L6.35818 10.7382C6.42469 11.073 6.60684 11.3738 6.87276 11.5879C7.13868 11.8019 7.47142 11.9156 7.81273 11.9091H14.8818C15.2231 11.9156 15.5559 11.8019 15.8218 11.5879C16.0877 11.3738 16.2699 11.073 16.3364 10.7382L17.5 4.63636H5.13636" stroke="black" stroke-width="1.5" stroke-linecap="round" stroke-linejoin="round"/>
</svg>
