<svg width="35" height="35" viewBox="0 0 35 35" fill="none" xmlns="http://www.w3.org/2000/svg">
<circle cx="17.5" cy="17.5" r="17.5" fill="#F4F9FC"/>
<path d="M17.455 18.0122C12.6476 18.0122 10 20.2865 10 24.4161C10 24.7386 10.2614 25.0001 10.5839 25.0001H24.326C24.6486 25.0001 24.91 24.7386 24.91 24.4161C24.91 20.2867 22.2624 18.0122 17.455 18.0122ZM11.1891 23.8322C11.4188 20.7445 13.5239 19.1801 17.455 19.1801C21.3861 19.1801 23.4912 20.7445 23.7211 23.8322H11.1891Z" fill="#030D15"/>
<path d="M17.455 9C15.2467 9 13.5815 10.6987 13.5815 12.9512C13.5815 15.2696 15.3192 17.1555 17.455 17.1555C19.5909 17.1555 21.3285 15.2696 21.3285 12.9513C21.3285 10.6987 19.6633 9 17.455 9ZM17.455 15.9878C15.963 15.9878 14.7494 14.6257 14.7494 12.9513C14.7494 11.3385 15.8873 10.1679 17.455 10.1679C18.9976 10.1679 20.1606 11.3644 20.1606 12.9513C20.1606 14.6257 18.947 15.9878 17.455 15.9878Z" fill="#030D15"/>
</svg>
