<svg width="65" height="12" viewBox="0 0 65 12" fill="none" xmlns="http://www.w3.org/2000/svg">
<path d="M6.19048 0L8.10333 3.87524L12.381 4.50048L9.28572 7.51524L10.0162 11.7743L6.19048 9.76238L2.36476 11.7743L3.09524 7.51524L0 4.50048L4.27762 3.87524L6.19048 0Z" fill="#C72535"/>
<path d="M19.3452 0L21.2581 3.87524L25.5357 4.50048L22.4405 7.51524L23.1709 11.7743L19.3452 9.76238L15.5195 11.7743L16.25 7.51524L13.1548 4.50048L17.4324 3.87524L19.3452 0Z" fill="#C72535"/>
<path d="M32.5 0L34.4129 3.87524L38.6905 4.50048L35.5952 7.51524L36.3257 11.7743L32.5 9.76238L28.6743 11.7743L29.4048 7.51524L26.3095 4.50048L30.5871 3.87524L32.5 0Z" fill="#C72535"/>
<path d="M45.6548 0L47.5676 3.87524L51.8452 4.50048L48.75 7.51524L49.4805 11.7743L45.6548 9.76238L41.8291 11.7743L42.5595 7.51524L39.4643 4.50048L43.7419 3.87524L45.6548 0Z" fill="#C72535"/>
<path d="M58.8095 0L60.7224 3.87524L65 4.50048L61.9048 7.51524L62.6352 11.7743L58.8095 9.76238L54.9838 11.7743L55.7143 7.51524L52.619 4.50048L56.8967 3.87524L58.8095 0Z" fill="#F4F9FC"/>
</svg>
